<?xml version="1.0" encoding="utf-8"?>
<!-- Generator: Adobe Illustrator 23.0.6, SVG Export Plug-In . SVG Version: 6.00 Build 0)  -->
<svg version="1.1" id="Layer_1" xmlns="http://www.w3.org/2000/svg" xmlns:xlink="http://www.w3.org/1999/xlink" x="0px" y="0px"
	 viewBox="0 0 680 418" style="enable-background:new 0 0 680 418;" xml:space="preserve">
<style type="text/css">
	.st0{fill:#FFFFFF;}
	.st1{fill:#FA4B6D;}
</style>
<g>
	<path id="Rectangle_142" class="st0" d="M12,12h656c6.6,0,12,5.4,12,12v382c0,6.6-5.4,12-12,12H12c-6.6,0-12-5.4-12-12V24
		C0,17.4,5.4,12,12,12z"/>
	<circle id="Ellipse_27" class="st1" cx="43" cy="13" r="13"/>
	<path class="st0" d="M42.8,17.2c0.5,0,0.9,0.1,1.1,0.4c0.3,0.3,0.4,0.6,0.4,1.1c0,0.4-0.1,0.8-0.4,1.1c-0.3,0.3-0.7,0.4-1.1,0.4
		c-0.5,0-0.8-0.1-1.1-0.4c-0.3-0.3-0.4-0.6-0.4-1.1s0.1-0.8,0.4-1.1C41.9,17.3,42.3,17.2,42.8,17.2z"/>
	<polygon class="st0" points="44,15.6 41.6,15.6 41.3,5.8 44.3,5.8 	"/>
</g>
</svg>
