<svg xmlns="http://www.w3.org/2000/svg" width="16.481" height="9.472" viewBox="0 0 16.481 9.472">
  <g id="Form_ShowPassword" transform="translate(-91.5 -162.978)">
    <path id="Path_101" data-name="Path 101" d="M8.69,13.6a9.875,9.875,0,0,1,7.8,4.52.578.578,0,0,1-.041.518,9.609,9.609,0,0,1-15.985.311C-.09,18.219-.09,18.458.48,17.7A10.05,10.05,0,0,1,8.69,13.6Zm6.676,4.758a8.468,8.468,0,0,0-14.025.021A8.546,8.546,0,0,0,15.366,18.354Z" transform="translate(91.45 149.382)"/>
    <path id="Path_103" data-name="Path 103" d="M54.969,37.193A2.9,2.9,0,1,1,57.893,34.3,2.911,2.911,0,0,1,54.969,37.193Zm1.887-2.882a1.861,1.861,0,1,0-1.845,1.845A1.87,1.87,0,0,0,56.856,34.311Z" transform="translate(44.798 133.425)"/>
  </g>
</svg>
