<svg xmlns="http://www.w3.org/2000/svg" width="16.525" height="9.53" viewBox="0 0 16.525 9.53">
  <g id="Form_HidePassword" transform="translate(0.05 0.024)">
    <path id="Path_2072" data-name="Path 2072" d="M11,3.6l-.8.8v.3A1.95,1.95,0,0,1,8.4,6.6H8.1l-.9.8a3.6,3.6,0,0,0,1.1.2,2.9,2.9,0,0,0,2.9-2.9A5.16,5.16,0,0,0,11,3.6ZM8.3,2.9h.3l.8-.8a2.016,2.016,0,0,0-1.1-.3A2.9,2.9,0,0,0,5.4,4.7a5.019,5.019,0,0,0,.2,1.2L6.5,5V4.7A1.733,1.733,0,0,1,8.3,2.9Zm2.7.7-.8.8v.3A1.95,1.95,0,0,1,8.4,6.6H8.1l-.9.8a3.6,3.6,0,0,0,1.1.2,2.9,2.9,0,0,0,2.9-2.9A5.16,5.16,0,0,0,11,3.6ZM8.3,2.9h.3l.8-.8a2.016,2.016,0,0,0-1.1-.3A2.9,2.9,0,0,0,5.4,4.7a5.019,5.019,0,0,0,.2,1.2L6.5,5V4.7A1.733,1.733,0,0,1,8.3,2.9Zm8.1,1.6a9.458,9.458,0,0,0-3.2-3.1l-.8.8a8.935,8.935,0,0,1,2.9,2.6,8.379,8.379,0,0,1-2.1,2.1A8.747,8.747,0,0,1,6.4,8.2l-.9.9a9.688,9.688,0,0,0,10.9-4A.637.637,0,0,0,16.4,4.5ZM1.3,4.8A8.392,8.392,0,0,1,3.6,2.5a8.08,8.08,0,0,1,6.7-1.2l.8-.8A6.963,6.963,0,0,0,8.6,0,10.325,10.325,0,0,0,.4,4.1c-.6.8-.6.5,0,1.2A11.12,11.12,0,0,0,3.1,7.9c.1,0,.2.1.3.2l.8-.8A7.629,7.629,0,0,1,1.3,4.8Zm7,1.8H8l-.8.8a3.6,3.6,0,0,0,1.1.2,2.9,2.9,0,0,0,2.9-2.9A3.6,3.6,0,0,0,11,3.6l-.8.8v.3A1.965,1.965,0,0,1,8.3,6.6ZM6.5,5V4.7A1.815,1.815,0,0,1,8.4,2.9h.3l.8-.8a2.663,2.663,0,0,0-1.2-.3A2.9,2.9,0,0,0,5.4,4.7a5.019,5.019,0,0,0,.2,1.2Z"/>
    <path id="Path_104_1_" d="M10.2,4.8A1.9,1.9,0,1,1,8.3,2.9h0A1.965,1.965,0,0,1,10.2,4.8Z" fill="#fff"/>
    <rect id="Rectangle_769" data-name="Rectangle 769" width="12.3" height="1" transform="translate(3.609 8.673) rotate(-45)"/>
  </g>
</svg>
