<svg xmlns="http://www.w3.org/2000/svg" width="13" height="13" viewBox="0 0 13 13">
  <g id="Form_Alert" transform="translate(-223 -490)">
    <g id="Group_254" data-name="Group 254" transform="translate(223 490)">
      <circle id="Ellipse_27" data-name="Ellipse 27" cx="6.5" cy="6.5" r="6.5" fill="#fa4b6d"/>
    </g>
    <g id="Group_615" data-name="Group 615" transform="translate(-303.605 132.609)">
      <path id="Path_2074" data-name="Path 2074" d="M533.392,366.089a.79.79,0,0,1,.573.21.764.764,0,0,1,0,1.069.881.881,0,0,1-1.142,0,.706.706,0,0,1-.218-.532.718.718,0,0,1,.218-.535A.781.781,0,0,1,533.392,366.089Zm.586-.772h-1.172l-.166-4.926h1.5Z" fill="#fff"/>
    </g>
  </g>
</svg>
