<svg xmlns="http://www.w3.org/2000/svg" width="32" height="32" viewBox="0 0 32 32">
  <g id="Menu_Help" transform="translate(-242 -347)" opacity="0.4">
    <circle id="Ellipse_33" data-name="Ellipse 33" cx="15" cy="15" r="15" transform="translate(243 348)" fill="none" stroke="#25252d" stroke-miterlimit="10" stroke-width="2"/>
    <g id="Group_614" data-name="Group 614" transform="translate(-273.696 -0.807)" opacity="0.5">
      <path id="Path_2073" data-name="Path 2073" d="M530.312,366.681a5.549,5.549,0,0,1,.25-1.742,4.477,4.477,0,0,1,.947-1.417l1.215-1.251a2.8,2.8,0,0,0,.779-1.888,2.157,2.157,0,0,0-.51-1.523,1.924,1.924,0,0,0-1.484-.55,2.236,2.236,0,0,0-1.522.5,1.694,1.694,0,0,0-.575,1.345H527.7a3.126,3.126,0,0,1,1.072-2.427,4,4,0,0,1,2.741-.922,3.782,3.782,0,0,1,2.732.94,3.406,3.406,0,0,1,.979,2.579,4.66,4.66,0,0,1-1.5,3.2l-1.011,1a3.114,3.114,0,0,0-.678,2.159Zm-.074,2.947a1.022,1.022,0,0,1,.255-.707.959.959,0,0,1,.756-.286.976.976,0,0,1,.761.286,1.012,1.012,0,0,1,.26.707.98.98,0,0,1-.26.7,1,1,0,0,1-.761.276.979.979,0,0,1-.756-.276A.989.989,0,0,1,530.238,369.628Z"/>
    </g>
  </g>
</svg>
