<svg xmlns="http://www.w3.org/2000/svg" width="32" height="32" viewBox="0 0 32 32">
  <g id="Menu_Profile" transform="translate(-1309.5 -925.5)" opacity="0.4">
    <path id="Path_47" data-name="Path 47" d="M44.187,41.575l-6.112-3.206a.793.793,0,0,1-.46-.713V35.638a.718.718,0,0,1,.162-.451A11.192,11.192,0,0,0,39.508,32.1a1.044,1.044,0,0,1,.243-.522h0a2.481,2.481,0,0,0,.595-1.639V28.346a1.15,1.15,0,0,0-.243-.713h0a1.2,1.2,0,0,1-.243-.713v-2.4c0-1-1.19-4.323-6.166-4.323s-6.166,3.325-6.166,4.323v2.4a1.15,1.15,0,0,1-.243.713h0a1.2,1.2,0,0,0-.243.713v1.591a2.63,2.63,0,0,0,.595,1.639h0a1.2,1.2,0,0,1,.243.522,10.854,10.854,0,0,0,1.731,3.088.718.718,0,0,1,.162.451v2.019a.793.793,0,0,1-.46.713L23.2,41.575" transform="translate(1291.437 911.3)" fill="none" stroke="#000" stroke-miterlimit="10" stroke-width="1" opacity="0.5"/>
    <circle id="Ellipse_31" data-name="Ellipse 31" cx="15" cy="15" r="15" transform="translate(1310.5 926.5)" fill="none" stroke="#25252d" stroke-miterlimit="10" stroke-width="2"/>
  </g>
</svg>
