<svg xmlns="http://www.w3.org/2000/svg" width="79" height="22.153" viewBox="0 0 79 22.153">
  <g id="ViewaLogo_Dark" transform="translate(-96.207 -214.195)">
    <path id="Path_2077" data-name="Path 2077" d="M288.54,237.325c-.75,3.938-2.49,5.547-3.9,5.547-1.313,0-1.931-1.086-1.931-2.662,0-2.984,2.227-6.732,5.279-6.732a7.091,7.091,0,0,1,1.277.132Zm6.037-6.636a19.061,19.061,0,0,0-5.315-.782c-7.869,0-11.484,5.778-11.484,11.188,0,3.348,1.971,5.583,4.856,5.583,1.875,0,3.938-.886,5.415-3.551h.068c-.068,1.153-.164,2.23-.2,3.184h4.325a39.4,39.4,0,0,1,.658-7.222Z" transform="translate(-119.371 -10.33)" fill="#2b3d51"/>
    <path id="Path_2078" data-name="Path 2078" d="M150.936,214.195a2.663,2.663,0,0,0-2.721,2.7,2.176,2.176,0,0,0,2.262,2.294h.068a2.624,2.624,0,0,0,2.789-2.666,2.244,2.244,0,0,0-2.4-2.326" transform="translate(-34.192 0)" fill="#2b3d51"/>
    <path id="Path_2079" data-name="Path 2079" d="M147.707,231.036l-4.748-.008a17.786,17.786,0,0,1-.507,5.2l-1.6,8.5c-.128.838-.2,2.071.65,2.294h4.194a6.508,6.508,0,0,1,.044-3.025l.22-1.189v-.02l1.233-6.564a16.357,16.357,0,0,0,.519-5.2" transform="translate(-29.297 -11.066)" fill="#2b3d51"/>
    <path id="Path_2080" data-name="Path 2080" d="M166.219,236.717a4.041,4.041,0,0,1,3.795-3.3c1.085,0,1.736.551,1.736,1.337,0,1.508-1.831,2-5.53,1.967m4.385-6.739c-5.79,0-9.325,5.076-9.325,9.943,0,4.19,2.358,6.772,6.9,6.772a11.64,11.64,0,0,0,6.416-2.107l-.758-2.562a10.136,10.136,0,0,1-4.477,1.01,3.7,3.7,0,0,1-3.077-1.245,3.509,3.509,0,0,1-.523-1.636c6.44.163,10.4-1.3,10.4-5.363,0-2.973-2.326-4.812-5.562-4.812" transform="translate(-42.78 -10.376)" fill="#2b3d51"/>
    <path id="Path_2081" data-name="Path 2081" d="M210.521,241.781l-.606-5.61a17.08,17.08,0,0,0-1.074-5.2l-.694,0h-4.166a19.918,19.918,0,0,1,1.369,5.2l.076.319c.547,3.256,1.161,6.939,1.341,8.021.419,2.5,1.768,2.5,1.768,2.5h3.48l6.025-10.838,0-.028a20.064,20.064,0,0,0,2.266-5.171l-5.188,0a21.293,21.293,0,0,1-1.951,5.2l-2.649,5.61" transform="translate(-70.854 -11.03)" fill="#2b3d51"/>
    <path id="Path_2082" data-name="Path 2082" d="M248.544,230.975a21.307,21.307,0,0,1-1.948,5.2l-2.653,5.61-.6-5.61a17.209,17.209,0,0,0-1.074-5.2l-.7,0H237.4a19.859,19.859,0,0,1,1.373,5.2l.076.319c.547,3.256,1.161,6.939,1.341,8.02.419,2.5,1.764,2.5,1.764,2.5h3.48l6.021-10.833.012-.028a20.207,20.207,0,0,0,2.266-5.171Z" transform="translate(-92.826 -11.032)" fill="#2b3d51"/>
    <path id="Path_2083" data-name="Path 2083" d="M107.351,230.925a21.13,21.13,0,0,1-1.951,5.2l-2.649,5.61-.606-5.61a17.094,17.094,0,0,0-1.073-5.2l-.7,0H96.207a19.591,19.591,0,0,1,1.373,5.2l.08.315c.546,3.26,1.161,6.943,1.34,8.024.415,2.5,1.764,2.5,1.764,2.5h3.479l6.021-10.833.012-.028a20.182,20.182,0,0,0,2.266-5.171Z" transform="translate(0 -10.999)" fill="#2b3d51"/>
  </g>
</svg>
